<svg fill="none" viewBox="0 0 612 894" height="50" aria-hidden="true" class="-mb-1 astro-EOLNE3TP" astro-icon="full-logo-dark"><path fill="#fff" fill-rule="evenodd" d="M445.432 22.983c7.29 9.05 11.007 21.26 18.441 45.682L626.28 602.176a675.845 675.845 0 0 0-194.166-65.737L326.37 179.099a13.762 13.762 0 0 0-26.407.041L195.5 536.259A675.814 675.814 0 0 0 .459 602.095L163.664 68.541c7.457-24.38 11.186-36.57 18.475-45.602A60.008 60.008 0 0 1 206.453 4.95C217.223.622 229.97.622 255.465.622h116.569c25.528 0 38.292 0 49.072 4.338a59.994 59.994 0 0 1 24.326 18.023Z" clip-rule="evenodd"></path><path fill="#FF5D01" fill-rule="evenodd" d="M464.866 627.566c-26.773 22.894-80.211 38.507-141.766 38.507-75.549 0-138.872-23.52-155.675-55.152-6.007 18.129-7.354 38.877-7.354 52.131 0 0-3.957 65.082 41.309 110.349 0-23.505 19.054-42.559 42.558-42.559 40.287 0 40.242 35.148 40.205 63.664l-.002 2.545c0 43.282 26.453 80.385 64.074 96.024-5.619-11.557-8.771-24.535-8.771-38.25 0-41.28 24.234-56.65 52.4-74.514 22.41-14.213 47.31-30.004 64.47-61.682 8.954-16.528 14.038-35.459 14.038-55.577 0-12.372-1.923-24.295-5.486-35.486Z" clip-rule="evenodd"></path></svg>